<svg xmlns="http://www.w3.org/2000/svg" viewBox="0 0 64 64" width="256" height="256" shape-rendering="crispEdges">
  <rect x="0" y="0" width="16" height="16" fill="#3D8B47"/>
  <rect x="2" y="3" width="2" height="2" fill="#4CA657"/>
  <rect x="10" y="9" width="3" height="1" fill="#34783D"/>
  <rect x="6" y="12" width="2" height="2" fill="#4CA657"/>

  <rect x="16" y="0" width="16" height="16" fill="#D2B48C"/>
  <rect x="16" y="2" width="16" height="1" fill="#C5A075"/>
  <rect x="18" y="9" width="4" height="2" fill="#E6D3B8"/>
  <rect x="26" y="5" width="3" height="1" fill="#B08D63"/>

  <rect x="32" y="0" width="16" height="16" fill="#3D8B47"/>
  <rect x="32" y="0" width="16" height="4" fill="#69B372"/>
  <rect x="32" y="0" width="4" height="16" fill="#69B372"/>

  <rect x="48" y="0" width="16" height="16" fill="#708090"/>
  <rect x="48" y="0" width="16" height="1" fill="#5F9EA0"/>
  <rect x="48" y="0" width="1" height="16" fill="#5F9EA0"/>

  <rect x="0" y="16" width="64" height="48" fill="#34783D" opacity="0.15"/>
  <rect x="4" y="24" width="8" height="6" fill="#2E6334"/>
  <rect x="20" y="36" width="10" height="4" fill="#2E6334"/>
  <rect x="40" y="20" width="4" height="12" fill="#2E6334"/>
  <rect x="52" y="48" width="6" height="6" fill="#2E6334"/>
</svg>
